<svg xmlns="http://www.w3.org/2000/svg" version="1.1" xmlns:xlink="http://www.w3.org/1999/xlink" xmlns:svgjs="http://svgjs.dev/svgjs" viewBox="0 0 1920 1080" class="overflow-hidden rounded-md drop-shadow-lg transition duration-300" style="overflow: hidden; height: 85vh;"><rect width="1920" height="1080" fill="#dddddd"/><g clip-path="url(&quot;#SvgjsClipPath2212&quot;)"><g transform="matrix(0.8131727983645296,0.8131727983645295,-0.8131727983645295,0.8131727983645296,605.9981885205407,-625.4863530246746)"><path d="M0,-1080C13.113718849609086,-990.5703136786999,99.82634233499904,-703.7516362495321,78.68231309765451,-543.4218820721994C57.53828386030999,-383.09212789486674,-99.44878186448943,-300.8611249643071,-126.86417542406713,-118.02147493600398C-154.27956898364482,64.81817509229916,-87.80857815951798,332.63997343821916,-85.81004825981165,553.6160180976194C-83.81151836010532,774.5920627570197,-145.9313545323676,1037.7879403446007,-114.87299602582914,1207.8347930203975C-83.81463751929067,1377.8816456961943,81.39460344178097,1415.2029329891336,100.54010277941916,1573.8971341524007C119.68560211705734,1732.5913353156677,16.75668379656986,2062.3161890254,0,2160L 1920 2160 L 1920 -1080 Z" fill="url(&quot;#SvgjsLinearGradient2200&quot;)"/><path d="M160,-1080C174.9363216879449,-1018.0286255690417,269.47329735660526,-847.8536266390497,249.6179301276695,-708.1717534142499C229.7625628987337,-568.4898801894501,70.32376638203021,-404.43721283446587,40.867796626385314,-241.90876065120142C11.411826870740416,-79.380308467937,38.03614553749165,109.93574551899164,72.88211159380012,266.9989596853366C107.72807765010859,424.06217385168156,216.1388950744649,553.9953692094908,249.94359296423613,700.4705243468685C283.74829085400734,846.9456794842462,279.77262889597944,977.4208417295174,275.71029893242746,1145.8498905096026C271.6479689688755,1314.2789392896877,244.85466300499536,1542.0197987789797,225.56961318292412,1711.0448170273794C206.28456336085287,1880.069835275779,170.92826886382068,2085.1741361712297,160,2160L 1920 2160 L 1920 -1080 Z" fill="url(&quot;#SvgjsLinearGradient2201&quot;)"/><path d="M320,-1080C331.5045902825976,-957.6163271299663,401.72862137202145,-541.1475776464827,389.0275416955854,-345.6979627797978C376.32646201914935,-150.24834791311292,257.242233203815,-93.55838974554982,243.7935219413837,92.69768920010938C230.34481067895243,278.95376814576855,290.3117061282268,554.745748458364,308.3352741209978,771.8385108941575C326.3588421137688,988.931273329951,349.99080891817584,1163.8940156305634,351.93492989800956,1395.2542638148705C353.87905087784327,1626.6145119991775,325.3224883163349,2032.5423773024784,320,2160L 1920 2160 L 1920 -1080 Z" fill="url(&quot;#SvgjsLinearGradient2202&quot;)"/><path d="M480,-1080C489.4945854923505,-1009.8908944959586,526.6622592708876,-796.149188338208,536.9675129541031,-659.3453669757515C547.2727666373186,-522.541545613295,567.2840719610626,-413.5667606280456,541.8315220992928,-259.1770718252613C516.3789722375229,-104.78738302247697,398.4800234226406,97.74597005088816,384.25221378348425,266.9927658409544C370.0244041443279,436.23956163102065,423.7927056130834,612.7530241785288,456.46466426435455,756.3037029151361C489.1366229156257,899.8543816517434,576.051130135583,957.2834834275244,580.283965691111,1128.2968382605982C584.516801246639,1299.3101930936718,498.5756718793747,1610.4333049570116,481.8616775975228,1782.3838319135787C465.147683315671,1954.3343588701457,480.31027959958715,2097.0639719855963,480,2160L 1920 2160 L 1920 -1080 Z" fill="url(&quot;#SvgjsLinearGradient2203&quot;)"/><path d="M640,-1080C638.2034747310204,-1001.3883709088391,637.5318682697983,-806.7153451251625,629.2208483861225,-608.3302254530346C620.9098285024467,-409.9451057809067,592.0155842540146,-86.46292792072407,590.133880697945,110.31071803276728C588.2521771418753,307.0843639862586,604.9693878392538,429.6740434530217,617.9306270497048,572.3116502679134C630.8918662601557,714.949257082805,653.7389452465939,801.3884758385593,667.9013159606502,966.1363589221172C682.0636866747066,1130.884242005675,707.5550706608182,1361.82167525628,702.9048513340431,1560.7989487692605C698.254632007268,1759.776222282241,650.4841418890072,2060.13315812821,640,2160L 1920 2160 L 1920 -1080 Z" fill="url(&quot;#SvgjsLinearGradient2204&quot;)"/><path d="M800,-1080C812.3553364713343,-1010.7018039781758,894.2785397812163,-833.6556748800725,874.1320188280062,-664.2108238690547C853.985497874796,-494.7659728580369,689.5296734939333,-244.0018385378094,679.1208742807391,-63.33089393389315C668.712075067545,117.34005067002309,774.8826047564309,214.9673506330667,811.6792235488415,419.8148437544426C848.4758423412521,624.6623368758185,885.438744016754,955.6730673440076,899.9005870352028,1165.7540647943624C914.3624300536516,1375.8350622447174,915.1003794987349,1514.5931725889654,898.4502816595344,1680.3008284565717C881.8001838203339,1846.008484324178,816.408380276589,2080.050138076095,800,2160L 1920 2160 L 1920 -1080 Z" fill="url(&quot;#SvgjsLinearGradient2205&quot;)"/><path d="M960,-1080C953.0502688371895,-952.6569897984091,910.0217460906836,-513.666621121075,918.3016130231367,-315.94193879045434C926.5814799555899,-118.21725645983378,985.1500164359403,-111.15617071835976,1009.6792015947187,106.34809398372346C1034.208386753497,323.8523586858067,1054.5799810866285,769.952328086293,1065.4767239758073,989.083649422045C1076.373466864986,1208.2149707577971,1092.6391129257597,1225.9832969019096,1075.0596589297918,1421.1360219982355C1057.4802049338239,1616.2887470945614,979.1766098216319,2036.8560036663725,960,2160L 1920 2160 L 1920 -1080 Z" fill="url(&quot;#SvgjsLinearGradient2206&quot;)"/><path d="M1120,-1080C1128.2142650569515,-1016.477284481832,1169.7570976893714,-836.292626376673,1169.2855903417092,-698.8637068909925C1168.8140829940469,-561.434787405312,1145.0513208781215,-419.56394948763955,1117.170955914026,-255.4264830859169C1089.2905909499307,-91.28901668419431,997.9717941193838,115.83945379717534,1002.0034005571368,285.9610915193432C1006.0350069948898,456.08272924151106,1120.836439962725,626.0965043372834,1141.360594540544,765.3033432470902C1161.884749118363,904.510182156897,1147.1466666375081,970.2280462695072,1125.1483280240507,1121.202124978184C1103.1499894105932,1272.1762036868608,1010.2286175304748,1498.0148363288483,1009.3705628597997,1671.147815499151C1008.5125081891247,1844.2807946694536,1101.5617604766333,2078.5246359165253,1120,2160L 1920 2160 L 1920 -1080 Z" fill="url(&quot;#SvgjsLinearGradient2207&quot;)"/><path d="M1280,-1080C1268.7899593704449,-951.4918293162609,1218.4998309820883,-573.220646262497,1212.7397562226697,-308.95097589756557C1206.9796814632512,-44.6813055326341,1253.7060934245033,233.8038804125062,1245.4395514434887,505.61802218958877C1237.173009462474,777.4321639666714,1157.380429577164,1046.2035451298614,1163.1405043365826,1321.93387476493C1168.9005790960011,1597.6642043999984,1260.5234173894305,2020.3223124608216,1280,2160L 1920 2160 L 1920 -1080 Z" fill="url(&quot;#SvgjsLinearGradient2208&quot;)"/><path d="M1440,-1080C1437.3231234012171,-1018.1150271442186,1407.693263784345,-863.8662948930365,1423.9387404073022,-708.6901628653121C1440.1842170302596,-553.5140308375877,1544.0969974804357,-298.611037225324,1537.4728597377434,-148.9432078336534C1530.8487219950512,0.7246215580172759,1401.9725061545919,43.69458220632484,1384.1939139511483,189.31681348471193C1366.4153217477046,334.939044763099,1419.3216541442298,546.6696748897359,1430.8013065170817,724.7901798366693C1442.2809588899336,902.9106847836026,1433.194179546605,1104.327055619426,1453.0718281882596,1258.0398431663123C1472.9494768299141,1411.7526307131986,1552.2458363983862,1496.7402123123734,1550.0671983670097,1647.066905117988C1547.8885603356332,1797.3935979236026,1458.3445330611682,2074.511150852998,1440,2160L 1920 2160 L 1920 -1080 Z" fill="url(&quot;#SvgjsLinearGradient2209&quot;)"/><path d="M1600,-1080C1588.3895714221014,-1004.3982862623658,1520.0510417023872,-785.5096976972109,1530.3374285326083,-626.3897175741947C1540.6238153628294,-467.26973745117857,1653.4440318578424,-290.0277444883667,1661.718320981326,-125.28011926190305C1669.9926101048097,39.46750596456056,1576.7641024088705,192.01684576187353,1579.9831632735106,362.09603378458706C1583.2022241381508,532.1752218073007,1689.826759538651,751.8794713690432,1681.0326861691667,895.1950088743782C1672.2386127996824,1038.5105463797133,1547.419187863909,1067.4789645171275,1527.2187230566055,1221.9892588165972C1507.018258249302,1376.4995531160669,1547.6996845014473,1665.9216511406298,1559.8298973253463,1822.256774671197C1571.9601101492453,1978.5918982017643,1593.3049828875578,2103.7094624451993,1600,2160L 1920 2160 L 1920 -1080 Z" fill="url(&quot;#SvgjsLinearGradient2210&quot;)"/><path d="M1760,-1080C1746.5868558596442,-977.2201737713788,1676.1330489285717,-686.0886124163302,1679.521135157865,-463.32104262827295C1682.9092213871584,-240.5534728402157,1787.8554863312008,51.04179232835031,1780.3285173757595,256.60541872834335C1772.801548420318,462.1690451283364,1650.4652722494573,562.5952716743973,1634.3593214252164,770.0607157716853C1618.2533706009756,977.5261598689733,1662.7526993345175,1269.7415359406857,1683.6928124303147,1501.3980833120715C1704.6329255261119,1733.0546306834574,1747.2821354050525,2050.2330138853454,1760,2160L 1920 2160 L 1920 -1080 Z" fill="url(&quot;#SvgjsLinearGradient2211&quot;)"/></g></g><defs><linearGradient x1="0.1" y1="0" x2="0" y2="1" id="SvgjsLinearGradient2200"><stop stop-color="#dddddd" offset="0"/><stop stop-color="#dddddd" offset="0"/></linearGradient><linearGradient x1="0.1" y1="0" x2="0" y2="1" id="SvgjsLinearGradient2201"><stop stop-color="#e0e0e0" offset="0"/><stop stop-color="#e0e0e0" offset="0.08333333333333333"/></linearGradient><linearGradient x1="0.1" y1="0" x2="0" y2="1" id="SvgjsLinearGradient2202"><stop stop-color="#e3e3e3" offset="0"/><stop stop-color="#e3e3e3" offset="0.16666666666666666"/></linearGradient><linearGradient x1="0.1" y1="0" x2="0" y2="1" id="SvgjsLinearGradient2203"><stop stop-color="#e6e6e6" offset="0"/><stop stop-color="#e6e6e6" offset="0.25"/></linearGradient><linearGradient x1="0.1" y1="0" x2="0" y2="1" id="SvgjsLinearGradient2204"><stop stop-color="#e8e8e8" offset="0"/><stop stop-color="#e8e8e8" offset="0.3333333333333333"/></linearGradient><linearGradient x1="0.1" y1="0" x2="0" y2="1" id="SvgjsLinearGradient2205"><stop stop-color="#ebebeb" offset="0"/><stop stop-color="#ebebeb" offset="0.4166666666666667"/></linearGradient><linearGradient x1="0.1" y1="0" x2="0" y2="1" id="SvgjsLinearGradient2206"><stop stop-color="#eeeeee" offset="0"/><stop stop-color="#eeeeee" offset="0.5"/></linearGradient><linearGradient x1="0.1" y1="0" x2="0" y2="1" id="SvgjsLinearGradient2207"><stop stop-color="#f1f1f1" offset="0"/><stop stop-color="#f1f1f1" offset="0.5833333333333334"/></linearGradient><linearGradient x1="0.1" y1="0" x2="0" y2="1" id="SvgjsLinearGradient2208"><stop stop-color="#f4f4f4" offset="0"/><stop stop-color="#f4f4f4" offset="0.6666666666666666"/></linearGradient><linearGradient x1="0.1" y1="0" x2="0" y2="1" id="SvgjsLinearGradient2209"><stop stop-color="#f6f6f6" offset="0"/><stop stop-color="#f6f6f6" offset="0.75"/></linearGradient><linearGradient x1="0.1" y1="0" x2="0" y2="1" id="SvgjsLinearGradient2210"><stop stop-color="#f9f9f9" offset="0"/><stop stop-color="#f9f9f9" offset="0.8333333333333334"/></linearGradient><linearGradient x1="0.1" y1="0" x2="0" y2="1" id="SvgjsLinearGradient2211"><stop stop-color="#fcfcfc" offset="0"/><stop stop-color="#fcfcfc" offset="0.9166666666666666"/></linearGradient><clipPath id="SvgjsClipPath2212"><rect width="1920" height="1080"/></clipPath></defs></svg>